<?xml version="1.0" encoding="utf-8"?><!DOCTYPE svg PUBLIC "-//W3C//DTD SVG 1.1//EN" "http://www.w3.org/Graphics/SVG/1.1/DTD/svg11.dtd"><svg version="1.1" xmlns="http://www.w3.org/2000/svg" xmlns:xlink="http://www.w3.org/1999/xlink" width="32" height="32" viewBox="0 0 32 32" data-tags="rails"><g fill="#444" transform="scale(0.03125 0.03125)"><path fill="rgb(204, 0, 0)" d="M891.085 674.59v49.647h84.557c17.327 0 47.061-13.44 48.098-51.017v-19.2c0-32.090-24.823-51.017-48.098-51.017h-42.15v-23.040h83.524v-49.92h-80.162c-20.685 0-48.354 18.103-48.354 51.84v17.28c0 33.737 27.409 51.017 48.354 51.017 58.18 0.273-13.965 0 39.821 0v24.137zM438.046 662.524c0 0 45.252-4.113 45.252-66.103s-54.818-67.75-54.818-67.75h-98.782v195.567h49.647v-47.177l42.927 47.177h73.438zM418.91 622.477h-39.565v-44.71h39.821c0 0 11.119 4.39 11.119 22.217s-11.379 22.49-11.379 22.49zM605.867 530.044h-50.423c-35.942 0-48.098 34.56-48.098 51.017v143.177h50.423v-34.287h47.322v34.287h48.875v-143.177c0-41.69-35.686-51.017-48.098-51.017zM605.090 634.543h-47.582v-47.45c0 0 0-10.697 15.774-10.697h17.327c13.965 0 14.221 10.697 14.221 10.697v47.45zM676.979 530.044h52.493v194.193h-52.493zM803.166 674.044v-144h-52.233v194.193h122.829v-50.193zM18.099 724.237h204.284c0 0-39.049-188.983 90.249-265.51 28.186-14.537 117.914-68.847 264.794 46.353 4.655-4.113 9.050-7.407 9.050-7.407s-134.464-142.353-284.186-126.447c-75.247 7.13-167.821 79.817-222.127 175.817s-62.059 177.19-62.059 177.19zM18.099 724.237h204.284c0 0-39.049-188.983 90.249-265.51 28.186-14.537 117.914-68.847 264.794 46.353 4.655-4.113 9.050-7.407 9.050-7.407s-134.464-142.353-284.186-126.447c-75.247 7.13-167.821 79.817-222.127 175.817s-62.059 177.19-62.059 177.19zM18.099 724.237h204.284c0 0-39.049-188.983 90.249-265.51 28.186-14.537 117.914-68.847 264.794 46.353 4.655-4.113 9.050-7.407 9.050-7.407s-134.464-142.353-284.186-126.447c-75.507 7.13-168.081 79.817-222.383 175.817s-61.803 177.19-61.803 177.19zM443.733 386.59l1.033-18.377c-2.325-1.37-8.794-4.663-25.084-9.6l-1.033 18.103c8.533 3.017 16.806 6.31 25.084 9.873zM419.166 444.74l-1.033 17.28c8.533 0.273 17.067 1.37 25.6 3.29l1.033-17.007c-8.794-1.92-17.327-3.017-25.6-3.567zM323.49 359.164h2.586l-5.171-16.734c-8.017 0-16.29 0.55-24.823 1.647l4.915 16.183c7.501-0.823 14.997-1.097 22.498-1.097zM335.902 460.1l5.948 18.923c7.501-3.84 14.997-7.13 22.498-9.6l-5.687-18.103c-8.794 2.743-16.29 5.76-22.754 8.777zM218.505 387.964l-11.635-18.927c-6.464 3.567-13.188 7.407-20.169 11.793l11.895 19.2c6.724-4.39 13.188-8.503 19.913-12.070zM271.514 511.39l12.412 19.75c4.395-6.857 9.566-13.167 15.258-19.473l-11.635-18.654c-5.948 5.76-11.379 12.070-16.034 18.377zM234.018 599.71l20.949 17.553c1.033-10.697 2.842-21.393 5.427-32.090l-18.62-15.633c-3.362 10.15-5.687 20.297-7.757 30.17zM120.759 469.423l-18.359-17.003c-6.724 6.857-13.188 13.713-19.136 20.57l19.913 18.103c5.431-7.407 11.379-14.81 17.583-21.67zM42.667 592.030l-29.739-11.52c-4.911 11.793-10.342 25.51-12.928 32.913l29.739 11.52c3.362-9.323 8.789-22.763 12.928-32.913zM230.14 669.38c0.516 14.537 1.809 26.33 3.102 34.56l31.031 11.793c-2.325-10.697-4.655-22.767-6.208-35.657z" /></g></svg>